<?xml version="1.0" standalone="no"?>
<!DOCTYPE svg PUBLIC "-//W3C//DTD SVG 20010904//EN"
 "http://www.w3.org/TR/2001/REC-SVG-20010904/DTD/svg10.dtd">
<svg version="1.0" xmlns="http://www.w3.org/2000/svg"
 width="128.000000pt" height="128.000000pt" viewBox="0 0 128.000000 128.000000"
 preserveAspectRatio="xMidYMid meet">
<metadata>
Created by potrace 1.14, written by Peter Selinger 2001-2017
</metadata>
<g transform="translate(0.000000,128.000000) scale(0.100000,-0.100000)"
fill="#000000" stroke="none">
<path d="M190 1112 c0 -4 -12 -8 -27 -8 -56 -1 -111 -25 -118 -52 -14 -55 56
-81 155 -59 103 24 185 18 283 -21 29 -11 35 -17 26 -28 -6 -7 -8 -18 -5 -23
4 -5 1 -13 -5 -17 -8 -4 -9 -3 -5 4 4 7 3 12 -3 12 -11 0 -111 -95 -111 -105
0 -3 -9 -16 -20 -27 -21 -23 -21 -45 -1 -40 7 1 10 -2 6 -8 -5 -8 -11 -8 -19
-1 -18 15 -28 1 -13 -17 7 -10 8 -13 1 -9 -16 9 -38 -19 -30 -38 3 -9 2 -13
-4 -10 -10 6 -12 -4 -13 -52 -1 -13 -6 -23 -11 -23 -6 0 -4 -5 4 -10 9 -6 10
-10 3 -10 -7 0 -10 -13 -9 -32 2 -21 8 -32 16 -30 10 2 11 0 2 -11 -6 -7 -9
-26 -6 -43 7 -46 13 -56 26 -48 10 6 10 5 1 -7 -10 -12 -9 -20 4 -40 10 -13
24 -30 33 -37 12 -11 12 -12 0 -6 -13 7 -13 5 -1 -9 7 -9 18 -14 24 -10 5 3 7
2 4 -4 -10 -16 43 -60 115 -93 150 -70 291 -51 401 55 80 76 117 177 111 302
-6 113 -60 213 -176 323 l-68 65 86 35 c91 36 147 41 319 30 80 -6 94 10 38
42 -99 58 -247 79 -365 52 -73 -17 -199 -74 -192 -86 3 -5 -17 2 -45 16 -102
52 -200 78 -308 82 -57 2 -103 0 -103 -4z m502 -259 c18 -16 43 -39 58 -53 14
-13 28 -24 33 -22 4 1 7 -3 7 -8 0 -12 40 -71 54 -82 5 -3 11 -15 12 -25 6
-41 11 -55 25 -64 10 -6 10 -9 1 -9 -17 0 -12 -60 7 -85 15 -18 15 -19 0 -7
-15 11 -18 8 -25 -25 -4 -21 -8 -44 -7 -50 0 -7 -3 -10 -8 -7 -8 4 -10 -2 -8
-22 0 -8 -78 -85 -88 -85 -4 0 -15 -7 -24 -15 -9 -8 -19 -11 -22 -7 -4 3 -7 2
-7 -3 0 -5 -25 -10 -56 -12 -142 -8 -245 118 -232 283 6 65 32 126 81 188 33
42 142 137 158 137 5 0 24 -12 41 -27z m-232 13 c0 -2 -8 -10 -17 -17 -16 -13
-17 -12 -4 4 13 16 21 21 21 13z m-45 -46 c-3 -5 -12 -10 -18 -10 -7 0 -6 4 3
10 19 12 23 12 15 0z m-101 -178 c3 -5 -1 -9 -9 -9 -8 0 -12 4 -9 9 3 4 7 8 9
8 2 0 6 -4 9 -8z"/>
</g>
</svg>
